<?xml version="1.0" standalone="no"?>
<!DOCTYPE svg PUBLIC "-//W3C//DTD SVG 20010904//EN"
 "http://www.w3.org/TR/2001/REC-SVG-20010904/DTD/svg10.dtd">
<svg version="1.0" xmlns="http://www.w3.org/2000/svg"
 width="349.000000pt" height="331.000000pt" viewBox="0 0 349.000000 331.000000"
 preserveAspectRatio="xMidYMid meet">

<g transform="translate(0.000000,331.000000) scale(0.100000,-0.100000)"
fill="#000000" stroke="none">
<path d="M1396 3295 c-3 -9 -6 -27 -6 -41 0 -17 -12 -31 -42 -50 -41 -26 -43
-26 -90 -11 l-49 15 -30 -41 c-31 -43 -59 -100 -59 -121 0 -6 16 -22 35 -36
19 -14 35 -33 35 -42 0 -17 -15 -18 -173 -18 -121 0 -177 -4 -185 -12 -9 -9
-12 -75 -12 -235 l0 -223 -89 0 c-49 0 -101 -4 -115 -10 l-26 -10 0 -283 c0
-207 3 -286 12 -295 9 -9 75 -12 235 -12 210 0 223 1 233 19 6 12 10 123 10
290 0 323 10 301 -137 301 l-93 0 0 220 0 220 165 0 c191 0 205 -7 139 -64
l-38 -33 17 -45 c10 -25 32 -62 50 -83 l32 -37 42 17 c41 16 42 16 87 -10 40
-23 46 -31 46 -60 0 -40 22 -65 56 -65 22 0 24 -4 24 -50 0 -41 -3 -50 -17
-50 -36 0 -119 -48 -157 -90 -56 -63 -80 -122 -80 -205 -1 -119 64 -224 173
-277 37 -19 63 -23 131 -23 75 0 91 3 138 29 60 33 101 76 134 139 18 34 23
59 23 127 0 73 -4 93 -28 143 l-29 58 36 44 c45 55 46 71 2 79 -25 5 -37 14
-46 36 -7 17 -18 30 -24 30 -6 0 -29 -23 -50 -51 -30 -40 -42 -50 -59 -45 -12
3 -41 8 -64 12 -43 7 -43 7 -43 50 0 42 1 44 29 44 37 0 61 23 61 58 0 35 7
43 53 71 37 23 39 23 80 7 l42 -17 32 37 c18 20 40 57 50 82 l17 45 -38 33
c-25 22 -36 39 -32 49 5 13 29 15 173 13 l168 -3 3 -187 2 -188 -34 0 c-42 0
-49 -10 -36 -45 9 -23 7 -28 -22 -43 -48 -26 -70 -51 -65 -74 4 -15 -3 -25
-29 -40 -49 -29 -58 -51 -38 -90 29 -58 43 -68 95 -68 36 0 51 5 62 20 8 11
28 23 46 26 26 6 30 4 25 -10 -4 -9 -26 -30 -49 -46 -45 -31 -79 -77 -90 -122
-4 -16 -16 -29 -31 -32 -34 -9 -56 -47 -52 -93 l3 -38 240 0 240 0 3 43 c3 37
-1 47 -26 70 l-29 26 20 51 c15 39 18 67 15 130 -7 126 -60 210 -159 254 -26
12 -50 28 -53 37 -3 9 -6 109 -6 223 0 148 -3 210 -12 219 -8 8 -65 12 -190
12 -163 0 -178 1 -178 18 0 9 16 28 35 42 19 14 34 32 35 40 0 24 -35 92 -64
127 l-27 32 -41 -16 c-38 -15 -42 -15 -84 5 -42 21 -48 29 -56 87 -3 18 -12
20 -99 23 -81 2 -98 0 -103 -13z m194 -262 c51 -52 59 -99 28 -161 -19 -38
-32 -51 -70 -66 -40 -17 -53 -18 -86 -8 -112 34 -143 165 -57 241 31 27 43 31
92 31 51 0 58 -3 93 -37z m545 -529 c8 -4 22 -19 31 -35 8 -16 22 -29 32 -29
55 0 141 -92 163 -174 17 -63 7 -156 -23 -214 -27 -51 -27 -62 0 -62 24 0 52
-31 52 -57 l0 -23 -215 0 c-214 0 -215 0 -215 22 0 29 28 58 55 58 19 0 24 7
29 43 6 35 17 52 71 102 64 59 97 117 78 136 -12 12 -125 -26 -136 -46 -8 -16
-54 -20 -73 -7 -14 9 -34 47 -34 64 0 7 20 24 44 38 40 21 44 27 39 52 -5 24
-1 29 42 50 44 22 47 25 42 55 -6 36 -6 36 18 27z m-1090 -334 l0 -265 -212
-3 -213 -2 0 270 0 270 213 -2 212 -3 0 -265z m525 240 c31 -9 37 -15 46 -55
9 -38 8 -48 -6 -60 -10 -9 -20 -11 -30 -5 -24 15 -99 12 -136 -6 -47 -22 -76
-67 -82 -125 -8 -84 36 -147 118 -169 76 -20 161 27 190 105 15 39 5 107 -21
138 -10 14 -16 32 -13 40 6 18 93 29 111 14 17 -13 43 -102 43 -148 0 -92 -66
-196 -155 -242 -62 -32 -174 -30 -241 5 -95 50 -143 131 -144 240 0 37 5 79
11 95 30 80 103 146 187 169 59 16 78 16 122 4z"/>
<path d="M905 2200 c-42 -60 -81 -112 -87 -116 -5 -4 -38 22 -73 56 -39 39
-68 60 -75 55 -8 -5 14 -33 66 -86 43 -44 82 -78 86 -77 14 5 187 261 182 270
-12 19 -27 3 -99 -102z"/>
<path d="M2260 2890 c0 -15 178 -101 185 -90 10 17 -3 27 -81 64 -76 37 -104
44 -104 26z"/>
<path d="M2570 2717 c0 -14 133 -127 150 -127 27 0 3 33 -61 84 -72 57 -89 66
-89 43z"/>
<path d="M485 2443 c-54 -66 -67 -93 -42 -93 11 1 127 140 127 154 0 3 -7 6
-15 6 -8 0 -39 -30 -70 -67z"/>
<path d="M2820 2485 c0 -15 114 -155 126 -155 8 0 14 4 14 9 0 17 -106 146
-123 149 -9 2 -17 1 -17 -3z"/>
<path d="M298 2144 c-28 -62 -37 -89 -29 -97 6 -6 13 -9 15 -6 12 12 83 178
78 183 -14 15 -26 0 -64 -80z"/>
<path d="M3024 2199 c-3 -6 11 -48 31 -92 45 -97 43 -93 56 -80 8 8 -1 35 -29
97 -23 47 -43 86 -46 86 -3 0 -8 -5 -12 -11z"/>
<path d="M2955 2045 c-5 -2 -70 -9 -142 -15 -154 -14 -154 -15 -93 -96 22 -29
40 -55 40 -57 0 -3 -46 -7 -102 -9 -247 -12 -455 -145 -562 -359 -26 -50 -49
-109 -52 -130 -4 -22 -10 -42 -14 -44 -12 -7 -110 181 -110 211 0 42 -23 23
-48 -41 -55 -136 -66 -351 -27 -505 38 -149 157 -340 268 -432 56 -46 168
-118 185 -118 15 0 15 -12 1 -44 -24 -52 -16 -54 162 -35 90 10 172 18 182 18
25 1 21 22 -11 67 -16 21 -36 51 -46 66 l-18 27 66 -6 c278 -26 564 157 667
424 13 35 27 63 30 63 11 0 89 -135 89 -154 0 -35 25 -8 47 50 20 54 22 78 22
286 1 220 0 230 -24 295 -71 188 -197 337 -377 445 -43 26 -55 37 -47 49 21
34 11 49 -33 48 -24 0 -47 -2 -53 -4z m-183 -214 c17 -4 42 -28 72 -69 26 -35
51 -60 56 -57 6 4 17 22 25 41 8 19 18 34 23 34 15 0 127 -76 170 -115 60 -53
129 -160 159 -245 35 -98 44 -271 18 -369 -71 -274 -317 -470 -595 -474 -41
-1 -96 2 -121 6 -41 7 -50 13 -84 62 -21 30 -44 55 -52 55 -8 0 -19 -13 -24
-30 -6 -16 -14 -30 -18 -30 -5 0 -39 22 -78 49 -171 120 -267 305 -267 511 0
117 15 181 65 288 83 173 264 310 450 341 63 10 162 11 201 2z"/>
<path d="M2359 1567 c-22 -15 -39 -38 -49 -65 -13 -38 -13 -47 2 -88 l16 -46
-33 -29 c-48 -42 -75 -115 -82 -219 -6 -85 -5 -89 20 -114 24 -24 32 -26 122
-26 l95 0 0 -51 c0 -103 31 -119 230 -119 199 0 230 16 230 119 l0 51 94 0
c88 0 95 1 121 28 27 26 27 29 22 107 -8 107 -31 170 -81 220 -38 38 -40 42
-28 65 8 15 11 45 9 74 -12 137 -193 161 -242 32 -17 -44 -17 -48 0 -92 22
-59 12 -67 -26 -21 -43 52 -94 64 -154 38 -27 -12 -50 -30 -57 -46 -6 -14 -16
-24 -20 -23 -11 4 -11 11 4 61 24 81 -38 167 -122 167 -22 0 -51 -9 -71 -23z
m129 -32 c39 -33 48 -74 27 -118 -39 -82 -150 -74 -176 13 -29 95 75 168 149
105z m486 10 c54 -35 58 -126 9 -165 -63 -49 -153 -3 -153 80 0 78 81 126 144
85z m-239 -151 c62 -41 50 -150 -20 -180 -45 -18 -78 -10 -110 28 -76 90 32
216 130 152z"/>
<path d="M213 1898 c-16 -19 -47 -164 -39 -184 11 -28 23 -5 40 79 20 94 19
130 -1 105z"/>
<path d="M748 1699 c-13 -7 -18 -23 -18 -59 0 -39 -4 -52 -19 -60 -31 -16 -56
-12 -81 15 -13 14 -33 25 -45 25 -25 0 -135 -108 -135 -132 0 -10 13 -32 29
-50 24 -28 27 -37 19 -60 -9 -25 -15 -28 -53 -28 -51 0 -75 -19 -75 -60 0 -26
-5 -31 -40 -40 -49 -13 -108 -63 -126 -107 -38 -90 2 -200 88 -242 56 -27 110
-27 166 0 l44 22 31 -31 c30 -31 30 -32 12 -52 -17 -19 -30 -20 -184 -20 -187
0 -216 -8 -259 -70 -21 -32 -22 -40 -22 -291 l0 -257 26 -31 c34 -41 92 -44
130 -6 24 24 30 25 150 25 200 0 204 5 204 270 l0 166 75 74 76 75 83 -3 c103
-5 126 10 126 82 0 40 3 45 29 54 26 9 32 7 57 -19 39 -41 64 -37 128 22 66
61 72 90 26 134 -28 27 -28 29 -14 56 12 24 21 29 50 29 67 0 74 10 74 109 0
101 -4 108 -70 113 -38 3 -46 7 -54 30 -8 24 -6 32 17 56 41 43 36 71 -27 131
-64 59 -90 64 -130 22 -25 -26 -30 -28 -57 -18 -26 10 -29 16 -29 54 0 66 -23
83 -112 83 -40 0 -81 -5 -90 -11z m127 -290 c57 -16 95 -46 116 -93 38 -85 12
-176 -63 -220 -101 -59 -222 -14 -258 97 -29 91 27 187 128 217 36 11 32 11
77 -1z m-415 -211 c93 -64 92 -191 -3 -262 -38 -28 -125 -29 -163 0 -68 51
-92 136 -57 204 40 78 151 106 223 58z"/>
<path d="M157 1553 c-12 -11 -8 -181 4 -189 20 -12 25 11 21 104 -4 86 -9 102
-25 85z"/>
<path d="M1424 1135 c-49 -22 -102 -90 -110 -142 -29 -194 221 -300 335 -143
35 49 46 103 31 158 -29 110 -154 171 -256 127z m142 -34 c100 -45 119 -174
37 -253 -32 -31 -38 -33 -104 -33 -69 0 -71 1 -109 41 -52 56 -60 107 -28 172
17 35 34 53 68 70 54 27 82 27 136 3z"/>
<path d="M1028 799 c-10 -5 -18 -21 -18 -34 0 -23 -23 -55 -39 -55 -4 0 -16 9
-26 20 -26 29 -44 25 -92 -22 -49 -48 -52 -62 -22 -94 31 -33 18 -64 -26 -64
-41 0 -55 -20 -55 -79 0 -47 20 -71 60 -71 37 0 45 -25 20 -57 -11 -14 -20
-31 -20 -37 0 -20 85 -96 106 -96 12 0 29 9 39 20 26 28 55 10 55 -34 0 -40
11 -46 84 -46 59 0 76 12 76 51 0 41 17 44 30 5 21 -63 32 -66 296 -66 l236 0
29 31 29 31 0 203 c0 193 -1 203 -23 236 -41 61 -70 69 -268 69 -163 0 -177 1
-194 20 -23 25 -46 25 -78 0 -34 -27 -57 -17 -57 26 0 23 -6 37 -19 44 -25 13
-101 13 -123 -1z m690 -153 l37 -34 3 -194 c3 -185 2 -195 -18 -221 l-21 -27
-228 0 c-207 0 -229 2 -244 18 -16 18 -22 40 -19 73 4 35 73 49 237 49 131 0
155 2 155 15 0 13 -22 15 -134 15 -106 0 -136 3 -146 15 -19 22 -4 45 28 45
42 0 54 20 50 87 l-3 58 -37 3 c-47 4 -58 31 -29 69 13 15 19 34 16 45 -6 17
3 18 154 18 l161 0 38 -34z m-578 -51 c64 -33 93 -105 66 -168 -21 -52 -69
-79 -129 -74 -127 11 -161 177 -49 236 45 24 74 26 112 6z"/>
<path d="M2588 287 c-63 -49 -83 -77 -56 -77 16 0 158 108 158 120 0 22 -39 6
-102 -43z"/>
<path d="M2293 111 c-77 -33 -107 -62 -65 -61 25 1 167 73 165 85 -3 17 -16
14 -100 -24z"/>
<path d="M1196 52 c-14 -23 67 -52 143 -52 58 0 46 10 -37 31 -37 9 -74 20
-83 24 -10 3 -20 2 -23 -3z"/>
<path d="M2000 14 l-55 -12 63 -1 c34 0 62 3 62 8 0 17 -14 18 -70 5z"/>
</g>
</svg>
